<svg id="Layer_1" data-name="Layer 1" xmlns="http://www.w3.org/2000/svg" xmlns:xlink="http://www.w3.org/1999/xlink" viewBox="0 0 145.08 71.19"><defs><style>.cls-1{fill:none;}.cls-2{clip-path:url(#clip-path);}.cls-3{fill:#231f20;}</style><clipPath id="clip-path" transform="translate(-31.46 -47.96)"><rect class="cls-1" x="31.46" y="47.96" width="145.08" height="71.19"/></clipPath></defs><g id="Artwork_1" data-name="Artwork 1"><g class="cls-2"><g class="cls-2"><path class="cls-3" d="M63,78a70.35,70.35,0,0,0-2.32,9.92,42.57,42.57,0,0,0-.77,9.62,11.63,11.63,0,0,0,3.48,7.93,13.41,13.41,0,0,0,6.41,3.13,23.17,23.17,0,0,0,15.1-2.41c4.78-2.5,9.1-7.12,8.66-12.88-.49-6.57-6-11.43-10.81-15.25-.17,1.31-.34,2.61-.5,3.92,4-2.41,8.28-5,10.75-9.16a13.72,13.72,0,0,0-.09-13.68C88.16,50.42,76.7,47.57,67.5,48a41.45,41.45,0,0,0-24.6,9.74A32.33,32.33,0,0,0,31.47,81.9c-.31,12.3,4.92,23.93,8.38,35.48.92,3.08,5.75,1.77,4.82-1.33C39.85,100,29.9,79.58,43,64.72a35.42,35.42,0,0,1,19.37-11,33.42,33.42,0,0,1,11.5-.43c4.12.58,8.54,1.93,11.75,4.71,3,2.63,5.27,6.87,3.77,10.91s-6.08,6.6-9.64,8.74c-1.25.75-1.8,2.89-.5,3.92,3.35,2.66,7.43,5.8,8.92,10s-1.07,7.44-4.42,9.53c-5.33,3.31-17.86,5.46-18.79-3.36A33.36,33.36,0,0,1,65.54,89a70.27,70.27,0,0,1,2.28-9.69C68.77,76.21,64,74.9,63,78" transform="translate(-31.46 -47.96)"/><path class="cls-3" d="M103.07,73.6a57.11,57.11,0,0,0-3.57,32.86c1,4.89,3.5,9.7,8.27,11.78a9.77,9.77,0,0,0,12.52-3.75,22.75,22.75,0,0,0,2.65-7.15c.67-2.9.84-5.79-1.21-8.18-1.34-1.55-3.58-.5-4.18,1.11-1.5,4,.53,8.15,3.46,10.86a21.47,21.47,0,0,0,11.13,5.09,26.13,26.13,0,0,0,22.55-7,26.52,26.52,0,0,0,7.68-21.68,39.56,39.56,0,0,0-10.25-22c-6.37-7.14-14.61-12.32-22.76-17.18-2.77-1.65-5.29,2.67-2.53,4.32C139,59.9,152.29,68.49,156.42,82.92c1.83,6.42,1.44,13.33-2.22,19a20.93,20.93,0,0,1-27.35,7.26c-2.64-1.45-5.72-4.37-4.48-7.63l-4.18,1.1c.79.91,0,3.15-.28,4.16a18,18,0,0,1-1.67,4.67,4.85,4.85,0,0,1-3.31,2.64,6.17,6.17,0,0,1-4.22-1.07c-3.24-2.06-4.24-6.41-4.72-9.95a54,54,0,0,1-.1-13.2,55.06,55.06,0,0,1,4-15,2.52,2.52,0,0,0-1.75-3.08,2.57,2.57,0,0,0-3.07,1.75" transform="translate(-31.46 -47.96)"/><path class="cls-3" d="M174.12,110c3.22,0,3.23-5,0-5s-3.22,5,0,5" transform="translate(-31.46 -47.96)"/></g></g></g></svg>